0
SECTION
2
HEADER
9
$ACADVER
1
AC1015
9
$INSUNITS
70
4
0
ENDSEC
0
SECTION
2
ENTITIES
0
LINE
8
FRONT_S01
10
0
20
120
30
0
11
19
21
120
31
0
0
LINE
8
FRONT_S01
10
19
20
120
30
0
11
19
21
840
31
0
0
LINE
8
FRONT_S01
10
19
20
840
30
0
11
0
21
840
31
0
0
LINE
8
FRONT_S01
10
0
20
840
30
0
11
0
21
120
31
0
0
LINE
8
SIDE_S01
10
919
20
120
30
0
11
1460
21
120
31
0
0
LINE
8
SIDE_S01
10
1460
20
120
30
0
11
1460
21
840
31
0
0
LINE
8
SIDE_S01
10
1460
20
840
30
0
11
919
21
840
31
0
0
LINE
8
SIDE_S01
10
919
20
840
30
0
11
919
21
120
31
0
0
LINE
8
FRONT_S02
10
581
20
120
30
0
11
600
21
120
31
0
0
LINE
8
FRONT_S02
10
600
20
120
30
0
11
600
21
840
31
0
0
LINE
8
FRONT_S02
10
600
20
840
30
0
11
581
21
840
31
0
0
LINE
8
FRONT_S02
10
581
20
840
30
0
11
581
21
120
31
0
0
LINE
8
SIDE_S02
10
919
20
120
30
0
11
1460
21
120
31
0
0
LINE
8
SIDE_S02
10
1460
20
120
30
0
11
1460
21
840
31
0
0
LINE
8
SIDE_S02
10
1460
20
840
30
0
11
919
21
840
31
0
0
LINE
8
SIDE_S02
10
919
20
840
30
0
11
919
21
120
31
0
0
LINE
8
FRONT_B01
10
19
20
120
30
0
11
581
21
120
31
0
0
LINE
8
FRONT_B01
10
581
20
120
30
0
11
581
21
139
31
0
0
LINE
8
FRONT_B01
10
581
20
139
30
0
11
19
21
139
31
0
0
LINE
8
FRONT_B01
10
19
20
139
30
0
11
19
21
120
31
0
0
LINE
8
SIDE_B01
10
919
20
120
30
0
11
1460
21
120
31
0
0
LINE
8
SIDE_B01
10
1460
20
120
30
0
11
1460
21
139
31
0
0
LINE
8
SIDE_B01
10
1460
20
139
30
0
11
919
21
139
31
0
0
LINE
8
SIDE_B01
10
919
20
139
30
0
11
919
21
120
31
0
0
LINE
8
FRONT_B02
10
19
20
821
30
0
11
581
21
821
31
0
0
LINE
8
FRONT_B02
10
581
20
821
30
0
11
581
21
840
31
0
0
LINE
8
FRONT_B02
10
581
20
840
30
0
11
19
21
840
31
0
0
LINE
8
FRONT_B02
10
19
20
840
30
0
11
19
21
821
31
0
0
LINE
8
SIDE_B02
10
919
20
821
30
0
11
1460
21
821
31
0
0
LINE
8
SIDE_B02
10
1460
20
821
30
0
11
1460
21
840
31
0
0
LINE
8
SIDE_B02
10
1460
20
840
30
0
11
919
21
840
31
0
0
LINE
8
SIDE_B02
10
919
20
840
30
0
11
919
21
821
31
0
0
LINE
8
FRONT_R01
10
0
20
120
30
0
11
600
21
120
31
0
0
LINE
8
FRONT_R01
10
600
20
120
30
0
11
600
21
840
31
0
0
LINE
8
FRONT_R01
10
600
20
840
30
0
11
0
21
840
31
0
0
LINE
8
FRONT_R01
10
0
20
840
30
0
11
0
21
120
31
0
0
LINE
8
SIDE_R01
10
900
20
120
30
0
11
919
21
120
31
0
0
LINE
8
SIDE_R01
10
919
20
120
30
0
11
919
21
840
31
0
0
LINE
8
SIDE_R01
10
919
20
840
30
0
11
900
21
840
31
0
0
LINE
8
SIDE_R01
10
900
20
840
30
0
11
900
21
120
31
0
0
LINE
8
FRONT_F01
10
20
20
466.5
30
0
11
580
21
466.5
31
0
0
LINE
8
FRONT_F01
10
580
20
466.5
30
0
11
580
21
485.5
31
0
0
LINE
8
FRONT_F01
10
580
20
485.5
30
0
11
20
21
485.5
31
0
0
LINE
8
FRONT_F01
10
20
20
485.5
30
0
11
20
21
466.5
31
0
0
LINE
8
SIDE_F01
10
922
20
466.5
30
0
11
1440
21
466.5
31
0
0
LINE
8
SIDE_F01
10
1440
20
466.5
30
0
11
1440
21
485.5
31
0
0
LINE
8
SIDE_F01
10
1440
20
485.5
30
0
11
922
21
485.5
31
0
0
LINE
8
SIDE_F01
10
922
20
485.5
30
0
11
922
21
466.5
31
0
0
LINE
8
FRONT_P01
10
19
20
0
30
0
11
581
21
0
31
0
0
LINE
8
FRONT_P01
10
581
20
0
30
0
11
581
21
120
31
0
0
LINE
8
FRONT_P01
10
581
20
120
30
0
11
19
21
120
31
0
0
LINE
8
FRONT_P01
10
19
20
120
30
0
11
19
21
0
31
0
0
LINE
8
SIDE_P01
10
1386
20
0
30
0
11
1405
21
0
31
0
0
LINE
8
SIDE_P01
10
1405
20
0
30
0
11
1405
21
120
31
0
0
LINE
8
SIDE_P01
10
1405
20
120
30
0
11
1386
21
120
31
0
0
LINE
8
SIDE_P01
10
1386
20
120
30
0
11
1386
21
0
31
0
0
LINE
8
FRONT_D01
10
2
20
122
30
0
11
598
21
122
31
0
0
LINE
8
FRONT_D01
10
598
20
122
30
0
11
598
21
838
31
0
0
LINE
8
FRONT_D01
10
598
20
838
30
0
11
2
21
838
31
0
0
LINE
8
FRONT_D01
10
2
20
838
30
0
11
2
21
122
31
0
0
LINE
8
SIDE_D01
10
1462
20
122
30
0
11
1481
21
122
31
0
0
LINE
8
SIDE_D01
10
1481
20
122
30
0
11
1481
21
838
31
0
0
LINE
8
SIDE_D01
10
1481
20
838
30
0
11
1462
21
838
31
0
0
LINE
8
SIDE_D01
10
1462
20
838
30
0
11
1462
21
122
31
0
0
ENDSEC
0
EOF